<?xml version="1.0" encoding="utf-8"?>
<!-- Generator: Adobe Illustrator 16.0.0, SVG Export Plug-In . SVG Version: 6.00 Build 0)  -->
<!DOCTYPE svg PUBLIC "-//W3C//DTD SVG 1.1//EN" "http://www.w3.org/Graphics/SVG/1.1/DTD/svg11.dtd">
<svg version="1.1" id="Vrstva_1" xmlns="http://www.w3.org/2000/svg" xmlns:xlink="http://www.w3.org/1999/xlink" x="0px" y="0px"
	 width="283.465px" height="151.087px" viewBox="0 0 283.465 151.087" enable-background="new 0 0 283.465 151.087"
	 xml:space="preserve">
<g>
	<path d="M59.021,52.415c3.427,0,5.165-1.642,5.165-4.57v-20.66c0-1.54,0.496-2.086,2.086-2.086h5.61
		c1.59,0,2.136,0.546,2.136,2.086v20.211c0,8.342-5.165,13.706-14.997,13.706c-9.784,0-14.949-5.364-14.949-13.706V27.185
		c0-1.54,0.497-2.086,2.086-2.086h5.613c1.588,0,2.134,0.546,2.134,2.086v20.66C53.904,50.773,55.594,52.415,59.021,52.415z"/>
	<path d="M106.897,60.359h-5.364c-2.631,0-3.573-0.346-4.417-2.085l-4.322-8.889c-0.796-1.589-1.49-2.484-3.377-2.484h-0.895v11.373
		c0,1.54-0.495,2.085-2.085,2.085h-5.611c-1.589,0-2.136-0.546-2.136-2.085V27.185c0-1.54,0.547-2.086,2.136-2.086h5.611
		c1.59,0,2.085,0.546,2.085,2.086V38.21h1.093l7.152-11.273c0.942-1.539,1.39-1.838,3.972-1.838h5.712
		c1.49,0,1.985,0.894,1.19,2.187l-9.037,14.399c1.242,0.895,2.184,2.136,3.029,3.826l6.557,12.414
		C108.885,59.268,108.539,60.359,106.897,60.359z"/>
	<path d="M141.268,60.359h-5.363c-2.579,0-3.325-0.546-3.722-2.085l-1.143-3.574h-10.728l-1.141,3.574
		c-0.499,1.54-1.143,2.085-3.628,2.085h-5.214c-1.541,0-1.837-0.694-1.34-2.036l11.422-31.483c0.495-1.442,1.143-1.741,2.583-1.741
		h5.658c1.441,0,2.088,0.348,2.584,1.639l11.472,31.584C143.209,59.665,142.759,60.359,141.268,60.359z M129.599,15.118l2.535,2.879
		c0.892,0.993,0.941,1.539-0.25,1.988l-9.039,2.78c-1.192,0.349-1.737,0.446-2.285-0.249l-1.339-1.64
		c-0.794-0.941-0.745-1.39,0.098-1.887l7.002-4.023C127.462,14.323,128.604,14.025,129.599,15.118z M125.873,34.138h-0.495
		c0,0,0.049,3.575-0.945,6.903l-1.834,5.86h6.207l-1.839-5.809C125.973,37.713,125.873,34.138,125.873,34.138z"/>
	<path d="M158.259,24.354c7.349,0,11.521,2.187,13.854,6.954c0.696,1.439,0.3,2.184-1.192,2.783l-4.965,2.132
		c-1.338,0.599-1.887,0.398-2.682-1.042c-0.941-1.887-2.73-2.582-5.015-2.582c-3.378,0-4.717,0.845-4.717,2.582
		c0,2.135,2.928,2.581,6.505,3.03c5.762,0.795,13.208,2.184,13.208,11.572c0,7.299-6.604,11.32-15.395,11.32
		c-7.397,0-12.564-2.531-14.452-7.697c-0.545-1.49-0.098-2.185,1.344-2.731l4.667-1.686c1.491-0.5,2.187-0.349,2.932,1.094
		c0.893,1.735,2.829,2.629,5.608,2.629c3.329,0,5.314-0.693,5.314-2.831c0-1.937-2.531-2.484-5.81-2.932
		c-5.81-0.794-13.957-1.836-13.957-11.471C143.507,28.924,148.771,24.354,158.259,24.354z M167.543,15.912l-4.966,5.064
		c-1.338,1.343-1.736,1.44-3.722,1.44h-1.342c-1.888,0-2.285-0.098-3.624-1.44l-5.02-5.064c-0.794-0.794-1.04-1.739,0.598-1.739
		h4.172c1.937,0,2.481,0.15,3.227,1.093l1.539,1.689l1.44-1.689c0.845-0.943,1.442-1.093,3.279-1.093h3.775
		C168.538,14.173,168.341,15.118,167.543,15.912z"/>
	<path d="M24.007,27.185v72.844h15.888c1.539,0,2.087,0.499,2.087,2.088v4.519c0,1.54-0.548,2.085-2.087,2.085H16.309
		c-1.59,0-2.135-0.546-2.135-2.085V27.185c0-1.54,0.545-2.086,2.135-2.086h5.61C23.51,25.099,24.007,25.645,24.007,27.185z"/>
	<path d="M259.405,106.636V33.792h-71.703c-1.54,0-2.086-0.499-2.086-2.086v-4.521c0-1.54,0.546-2.086,2.086-2.086h79.401
		c1.588,0,2.133,0.546,2.133,2.086v79.451c0,1.54-0.545,2.085-2.133,2.085h-5.613C259.902,108.722,259.405,108.176,259.405,106.636z
		"/>
	<path d="M70.095,75.547v4.47c0,1.588-0.547,2.133-2.135,2.133H54.849v4.422h10.478c1.589,0,2.136,0.544,2.136,2.084v4.47
		c0,1.589-0.547,2.138-2.136,2.138H54.849v4.765h13.557c1.539,0,2.087,0.499,2.087,2.088v4.519c0,1.54-0.548,2.085-2.087,2.085
		H47.15c-1.59,0-2.135-0.546-2.135-2.085V75.547c0-1.539,0.545-2.084,2.135-2.084h20.81C69.548,73.463,70.095,74.008,70.095,75.547z
		"/>
	<path d="M105.357,75.497l-10.976,31.488c-0.496,1.438-1.142,1.737-2.581,1.737h-6.208c-1.439,0-2.135-0.349-2.581-1.638
		L71.985,75.497c-0.498-1.342-0.05-2.034,1.44-2.034h5.661c2.532,0,3.326,0.545,3.724,2.084l4.718,16.986
		c0.796,2.927,1.094,6.403,1.094,6.403h0.448c0,0,0.197-3.426,1.042-6.354l4.719-17.035c0.397-1.539,1.143-2.084,3.574-2.084h5.613
		C105.508,73.463,105.855,74.155,105.357,75.497z"/>
	<path d="M116.835,63.479l2.532,2.88c0.844,0.995,0.894,1.539-0.299,1.985l-8.986,2.784c-1.191,0.345-1.788,0.446-2.284-0.25
		l-1.393-1.638c-0.745-0.945-0.745-1.392,0.149-1.887l7.004-4.025C114.701,62.684,115.842,62.39,116.835,63.479z M110.082,73.463
		h5.859c1.489,0,1.985,0.494,1.985,1.985v31.288c0,1.49-0.496,1.985-1.985,1.985h-5.859c-1.49,0-1.988-0.496-1.988-1.985V75.449
		C108.094,73.958,108.592,73.463,110.082,73.463z"/>
	<path d="M152.743,75.547v31.089c0,1.54-0.548,2.085-2.087,2.085h-5.612c-1.04,0-1.589-0.298-2.035-0.995l-7.647-11.769
		c-2.187-3.425-3.03-5.762-4.369-10.229h-0.398c1.042,4.765,1.64,7.299,1.64,12.81v8.097c0,1.54-0.549,2.085-2.137,2.085h-5.016
		c-1.589,0-2.136-0.546-2.136-2.085V75.547c0-1.539,0.547-2.084,2.136-2.084h5.857c1.143,0,1.643,0.294,2.089,0.991l8.144,12.715
		c2.187,3.426,2.583,5.311,4.172,9.086h0.397c-1.589-5.114-2.236-7.498-2.236-12.565v-8.143c0-1.539,0.5-2.084,2.088-2.084h5.064
		C152.195,73.463,152.743,74.008,152.743,75.547z"/>
	<path d="M171.37,72.718c7.352,0,11.521,2.183,13.857,6.952c0.695,1.441,0.298,2.186-1.193,2.78l-4.966,2.136
		c-1.342,0.595-1.886,0.397-2.682-1.043c-0.944-1.888-2.731-2.584-5.017-2.584c-3.376,0-4.718,0.844-4.718,2.584
		c0,2.136,2.933,2.582,6.505,3.029c5.762,0.794,13.213,2.185,13.213,11.57c0,7.3-6.608,11.324-15.398,11.324
		c-7.397,0-12.563-2.534-14.449-7.697c-0.547-1.49-0.101-2.186,1.341-2.731l4.666-1.69c1.491-0.496,2.186-0.349,2.932,1.094
		c0.893,1.739,2.829,2.632,5.612,2.632c3.326,0,5.313-0.696,5.313-2.831c0-1.939-2.532-2.484-5.812-2.931
		c-5.81-0.793-13.953-1.837-13.953-11.471C156.622,77.288,161.887,72.718,171.37,72.718z"/>
	<path d="M218.058,108.722h-5.364c-2.632,0-3.574-0.349-4.421-2.085l-4.318-8.892c-0.795-1.587-1.491-2.48-3.378-2.48h-0.894v11.372
		c0,1.54-0.498,2.085-2.087,2.085h-5.609c-1.592,0-2.138-0.546-2.138-2.085V75.547c0-1.539,0.546-2.084,2.138-2.084h5.609
		c1.589,0,2.087,0.545,2.087,2.084v11.025h1.093l7.149-11.275c0.946-1.54,1.393-1.834,3.973-1.834h5.713
		c1.49,0,1.987,0.893,1.19,2.183l-9.037,14.402c1.24,0.892,2.186,2.137,3.029,3.824l6.554,12.417
		C220.044,107.628,219.695,108.722,218.058,108.722z"/>
	<path d="M253.023,75.547l-11.47,19.517v11.572c0,1.54-0.499,2.085-2.086,2.085h-5.613c-1.59,0-2.136-0.546-2.136-2.085V95.064
		l-11.422-19.517c-0.695-1.143-0.497-2.084,1.044-2.084h5.959c2.482,0,3.179,0.099,4.122,1.834l5.313,10.133l5.463-10.133
		c0.942-1.735,1.641-1.834,4.071-1.834h5.712C253.47,73.463,253.67,74.405,253.023,75.547z M240.608,63.479l2.532,2.88
		c0.845,0.995,0.895,1.539-0.298,1.985l-8.988,2.784c-1.191,0.345-1.788,0.446-2.284-0.25l-1.391-1.638
		c-0.746-0.945-0.746-1.392,0.149-1.887l7.002-4.025C238.475,62.684,239.616,62.39,240.608,63.479z"/>
	<g>
		<path d="M25.861,119.095c0.345,0,0.456,0.115,0.456,0.459v0.641c0,0.344-0.111,0.459-0.456,0.459h-4.63v14.254
			c0,0.342-0.114,0.457-0.458,0.457h-0.756c-0.344,0-0.459-0.114-0.459-0.457v-14.254h-4.63c-0.345,0-0.456-0.115-0.456-0.459
			v-0.641c0-0.344,0.111-0.459,0.456-0.459H25.861z"/>
		<path d="M37.865,119.095c3.025,0,4.812,1.744,4.812,4.745c0,2.498-1.376,4.125-3.689,4.49c0.595,0.277,1.1,0.805,1.49,1.582
			l2.566,4.997c0.205,0.297,0.114,0.457-0.229,0.457H42.06c-0.481,0-0.779-0.138-0.895-0.411l-2.223-4.425
			c-0.732-1.465-1.514-1.992-3.277-1.992h-3.094v6.371c0,0.342-0.092,0.457-0.436,0.457H31.38c-0.345,0-0.459-0.114-0.459-0.457
			v-15.354c0-0.344,0.114-0.459,0.459-0.459H37.865z M37.704,120.654h-5.133v6.325h5.133c2.041,0,3.256-1.123,3.256-3.139
			C40.96,121.8,39.79,120.654,37.704,120.654z"/>
		<path d="M57.936,119.095c0.299,0,0.436,0.162,0.436,0.459v0.641c0,0.298-0.137,0.459-0.436,0.459h-8.089v5.683h7.058
			c0.298,0,0.435,0.161,0.435,0.458v0.643c0,0.298-0.137,0.457-0.435,0.457h-7.058v5.915h8.388c0.297,0,0.436,0.161,0.436,0.456
			v0.644c0,0.297-0.139,0.457-0.436,0.457h-9.579c-0.345,0-0.46-0.114-0.46-0.457v-15.354c0-0.344,0.115-0.459,0.46-0.459H57.936z"
			/>
		<path d="M75.646,119.095c0.344,0,0.459,0.115,0.459,0.459v15.354c0,0.342-0.115,0.457-0.459,0.457h-0.733
			c-0.229,0-0.389-0.091-0.481-0.25l-7.311-10.496c-0.319-0.481-0.688-1.125-1.1-1.925c-0.411-0.8-0.663-1.237-0.732-1.353h-0.092
			c0,0.115,0.046,0.664,0.137,1.626c0.069,0.963,0.114,1.765,0.114,2.431v9.511c0,0.297-0.137,0.457-0.434,0.457h-0.711
			c-0.344,0-0.459-0.114-0.459-0.457v-15.354c0-0.344,0.115-0.459,0.459-0.459h0.733c0.206,0,0.366,0.069,0.481,0.229l7.127,10.291
			c0.344,0.504,0.756,1.168,1.214,1.995c0.436,0.824,0.711,1.305,0.825,1.465h0.069c0-0.16-0.046-0.733-0.137-1.741
			c-0.093-0.986-0.14-1.833-0.14-2.522v-9.28c0-0.299,0.16-0.436,0.459-0.436H75.646z"/>
		<path d="M91.937,119.095c0.298,0,0.436,0.162,0.436,0.459v0.641c0,0.298-0.138,0.459-0.436,0.459h-8.089v5.683h7.058
			c0.297,0,0.434,0.161,0.434,0.458v0.643c0,0.298-0.137,0.457-0.434,0.457h-7.058v5.915h8.387c0.297,0,0.435,0.161,0.435,0.456
			v0.644c0,0.297-0.138,0.457-0.435,0.457h-9.579c-0.344,0-0.459-0.114-0.459-0.457v-15.354c0-0.344,0.115-0.459,0.459-0.459H91.937
			z"/>
		<path d="M104.787,119.095c3.025,0,4.814,1.744,4.814,4.745c0,2.498-1.377,4.125-3.689,4.49c0.595,0.277,1.1,0.805,1.49,1.582
			l2.564,4.997c0.207,0.297,0.116,0.457-0.229,0.457h-0.756c-0.481,0-0.78-0.138-0.895-0.411l-2.222-4.425
			c-0.734-1.465-1.514-1.992-3.279-1.992h-3.092v6.371c0,0.342-0.091,0.457-0.436,0.457h-0.755c-0.345,0-0.461-0.114-0.461-0.457
			v-15.354c0-0.344,0.116-0.459,0.461-0.459H104.787z M104.63,120.654h-5.135v6.325h5.135c2.038,0,3.254-1.123,3.254-3.139
			C107.884,121.8,106.713,120.654,104.63,120.654z"/>
		<path d="M120.573,118.776c3.117,0,4.838,1.075,6.029,3.528c0.137,0.252,0.045,0.459-0.254,0.595l-0.709,0.322
			c-0.299,0.115-0.416,0.091-0.598-0.208c-0.918-1.832-2.2-2.656-4.469-2.656c-2.727,0-4.216,1.076-4.216,3.024
			c0.093,1.421,0.732,2.107,2.062,2.497c0.916,0.298,1.488,0.39,2.682,0.505c1.352,0.161,2.062,0.252,3.186,0.665
			c0.573,0.208,1.009,0.459,1.354,0.754c0.663,0.599,1.212,1.673,1.212,3.072c0,3.026-2.2,4.813-6.23,4.813
			c-3.278,0-5.134-1.26-6.213-3.941c-0.091-0.298,0-0.504,0.275-0.618l0.713-0.254c0.249-0.091,0.457,0,0.593,0.276
			c0.849,1.995,2.384,2.979,4.632,2.979c3.047,0,4.558-1.077,4.558-3.209c-0.092-1.419-0.686-2.085-1.901-2.474
			c-0.871-0.274-1.444-0.344-2.564-0.459c-0.712-0.067-1.308-0.159-1.743-0.229c-0.436-0.068-0.963-0.228-1.582-0.436
			c-0.618-0.205-1.1-0.457-1.444-0.755c-0.709-0.595-1.281-1.649-1.281-3.093C114.662,120.608,116.838,118.776,120.573,118.776z"/>
		<path d="M144.333,135.709c0.183,0.23,0.162,0.436-0.046,0.644l-0.502,0.41c-0.232,0.208-0.436,0.208-0.643-0.045l-1.648-1.947
			c-0.941,0.619-2.153,0.916-3.689,0.916c-4.059,0-6.305-2.153-6.305-5.75v-5.41c0-3.596,2.246-5.75,6.305-5.75
			c4.03,0,6.275,2.154,6.275,5.75v5.41c0,1.603-0.432,2.909-1.328,3.917L144.333,135.709z M133.151,129.937
			c0,2.681,1.648,4.215,4.653,4.215c3.001,0,4.628-1.534,4.628-4.215v-5.41c0-2.681-1.627-4.215-4.628-4.215
			c-3.005,0-4.653,1.534-4.653,4.215V129.937z"/>
		<path d="M151.501,129.843c0,2.728,1.536,4.309,4.493,4.309s4.493-1.581,4.493-4.309v-10.289c0-0.344,0.112-0.459,0.456-0.459
			h0.755c0.346,0,0.46,0.115,0.46,0.459v10.266c0,3.668-2.153,5.89-6.164,5.89c-4.012,0-6.165-2.222-6.165-5.89v-10.266
			c0-0.344,0.115-0.459,0.46-0.459h0.755c0.344,0,0.457,0.115,0.457,0.459V129.843z"/>
		<path d="M180.604,134.932c0.114,0.295,0.022,0.433-0.322,0.433h-0.663c-0.483,0-0.756-0.138-0.826-0.411l-1.72-4.354h-7.171
			l-1.719,4.354c-0.091,0.344-0.253,0.411-0.802,0.411h-0.62c-0.321,0-0.413-0.138-0.296-0.433l6.141-15.515
			c0.092-0.252,0.276-0.39,0.572-0.39h0.688c0.298,0,0.506,0.114,0.597,0.368L180.604,134.932z M173.865,122.19
			c-0.206-0.621-0.32-1.148-0.32-1.582h-0.117c0,0.48-0.091,1.009-0.273,1.582l-2.772,7.035h6.234L173.865,122.19z"/>
		<path d="M190.129,118.776c3.118,0,4.836,1.075,6.03,3.528c0.137,0.252,0.045,0.459-0.253,0.595l-0.71,0.322
			c-0.298,0.115-0.412,0.091-0.596-0.208c-0.917-1.832-2.2-2.656-4.472-2.656c-2.726,0-4.214,1.076-4.214,3.024
			c0.094,1.421,0.733,2.107,2.062,2.497c0.917,0.298,1.488,0.39,2.681,0.505c1.351,0.161,2.062,0.252,3.188,0.665
			c0.572,0.208,1.009,0.459,1.351,0.754c0.663,0.599,1.214,1.673,1.214,3.072c0,3.026-2.2,4.813-6.233,4.813
			c-3.274,0-5.131-1.26-6.209-3.941c-0.092-0.298,0-0.504,0.271-0.618l0.715-0.254c0.249-0.091,0.457,0,0.594,0.276
			c0.847,1.995,2.384,2.979,4.629,2.979c3.049,0,4.562-1.077,4.562-3.209c-0.092-1.419-0.688-2.085-1.901-2.474
			c-0.873-0.274-1.444-0.344-2.567-0.459c-0.712-0.067-1.305-0.159-1.741-0.229c-0.437-0.068-0.963-0.228-1.581-0.436
			c-0.62-0.205-1.1-0.457-1.445-0.755c-0.709-0.595-1.282-1.649-1.282-3.093C184.22,120.608,186.395,118.776,190.129,118.776z"/>
		<path d="M213.136,119.095c0.298,0,0.436,0.162,0.436,0.459v15.354c0,0.297-0.138,0.457-0.436,0.457h-0.756
			c-0.345,0-0.46-0.114-0.46-0.457v-7.015h-8.73v7.015c0,0.342-0.092,0.457-0.435,0.457h-0.759c-0.341,0-0.456-0.114-0.456-0.457
			v-15.354c0-0.344,0.115-0.459,0.456-0.459h0.759c0.343,0,0.435,0.115,0.435,0.459v6.783h8.73v-6.783
			c0-0.344,0.115-0.459,0.46-0.459H213.136z"/>
		<path d="M229.402,119.095c0.298,0,0.437,0.162,0.437,0.459v0.641c0,0.298-0.139,0.459-0.437,0.459h-8.09v5.683h7.059
			c0.298,0,0.437,0.161,0.437,0.458v0.643c0,0.298-0.139,0.457-0.437,0.457h-7.059v5.915h8.388c0.297,0,0.435,0.161,0.435,0.456
			v0.644c0,0.297-0.138,0.457-0.435,0.457h-9.581c-0.342,0-0.455-0.114-0.455-0.457v-15.354c0-0.344,0.113-0.459,0.455-0.459
			H229.402z"/>
		<path d="M235.722,133.534c0.712,0,0.895,0.204,0.895,0.917v0.137c0,0.71-0.229,0.917-0.895,0.917h-0.137
			c-0.709,0-0.916-0.207-0.916-0.917v-0.137c0-0.713,0.207-0.917,0.916-0.917H235.722z"/>
		<path d="M241.223,124.527c0-3.596,2.224-5.75,6.276-5.75c3.416,0,5.271,1.282,6.098,3.917c0.114,0.344,0.068,0.481-0.274,0.597
			l-0.711,0.25c-0.298,0.07-0.481-0.021-0.595-0.274c-0.641-2.04-1.926-2.955-4.518-2.955c-2.999,0-4.604,1.534-4.604,4.191v5.454
			c0,2.636,1.651,4.194,4.604,4.194c2.638,0,3.919-0.941,4.562-3.023c0.117-0.276,0.319-0.368,0.595-0.3l0.71,0.275
			c0.275,0.115,0.366,0.298,0.275,0.574c-0.823,2.658-2.679,4.01-6.142,4.01c-4.007,0-6.276-2.153-6.276-5.75V124.527z"/>
		<path d="M268.604,119.095c0.346,0,0.46,0.115,0.46,0.459v0.619c0,0.185-0.05,0.342-0.162,0.504l-9.077,13.132h9.007
			c0.301,0,0.46,0.137,0.46,0.436v0.665c0,0.342-0.114,0.457-0.46,0.457h-10.633c-0.298,0-0.438-0.16-0.438-0.457v-0.619
			c0-0.229,0.047-0.413,0.162-0.527l9.054-13.109h-8.662c-0.345,0-0.462-0.115-0.462-0.459v-0.641c0-0.344,0.117-0.459,0.462-0.459
			H268.604z"/>
	</g>
</g>
</svg>
